<?xml version="1.0"?>
<svg xmlns="http://www.w3.org/2000/svg" width="50" height="50" viewBox="0 0 50 50">
    <path d="M 5 10 C 3.346 10 2 11.346 2 13 L 2 26.8125 C 3.298 25.6875 4.938 24.7765 7 24.0625 L 7 20 C 7 17.341 11.542 17 15.5 17 C 19.458 17 24 17.341 24 20 L 24 22 C 24.334 21.998 24.657 22 25 22 C 25.343 22 25.665 21.997 26 22 L 26 20 C 26 17.341 30.543 17 34.5 17 C 38.457 17 43 17.341 43 20 L 43 24.03125 C 45.059 24.74325 46.691 25.6725 48 26.8125 L 48 13 C 48 11.346 46.654 10 45 10 L 5 10 z M 25 24 C 5.907 24 -0.014 27.531 0 37 L 50 37 C 50.014 27.469 44.093 24 25 24 z M 0 39 L 0 50 L 7 50 L 7 46 C 7 44.561 7.561 44 9 44 L 41 44 C 42.439 44 43 44.561 43 46 L 43 50 L 50 50 L 50 39 L 0 39 z"/>
</svg>
