<?xml version="1.0"?>
<svg xmlns="http://www.w3.org/2000/svg" width="50" height="50" viewBox="0 0 50 50">
    <path d="M 10 9 C 8.346 9 7 10.346 7 12 L 7 23.03125 C 7.838 22.39725 8.87 22 10 22 L 12 22 L 12 20 C 12 19.789 12.0635 19.57625 12.1875 19.40625 C 12.3185 19.22625 15.499 15 25 15 C 34.501 15 37.6815 19.22625 37.8125 19.40625 C 37.9365 19.57625 38 19.789 38 20 L 38 22 L 40 22 C 41.13 22 42.162 22.39725 43 23.03125 L 43 12 C 43 10.346 41.654 9 40 9 L 10 9 z M 10 24 C 8.346 24 7 25.346 7 27 L 7 42 C 7 42.553 7.448 43 8 43 L 12 43 C 12.552 43 13 42.553 13 42 L 13 40 C 13 39.448 13.449 39 14 39 L 36 39 C 36.552 39 37 39.448 37 40 L 37 42 C 37 42.553 37.447 43 38 43 L 42 43 C 42.553 43 43 42.553 43 42 L 43 27 C 43 25.346 41.654 24 40 24 L 10 24 z"/>
</svg>
